<svg width="23" height="23" viewBox="0 0 23 23" fill="none" xmlns="http://www.w3.org/2000/svg">
<path d="M13.3609 6.18519C14.8858 6.74759 16.0944 8.0087 16.6334 9.59987M14.2245 3.5332C16.5367 4.37487 18.3682 6.28606 19.1748 8.69874M11.1973 12.7909C10.2153 11.7662 9.43988 10.6076 8.87107 9.37135C8.82214 9.26501 8.79768 9.21185 8.77888 9.14457C8.71209 8.90548 8.76007 8.6119 8.89901 8.40942C8.93811 8.35244 8.98482 8.3037 9.07825 8.20622C9.36397 7.90807 9.50683 7.759 9.60023 7.6091C9.95247 7.04379 9.95246 6.315 9.60023 5.74969C9.50683 5.59979 9.36397 5.45072 9.07825 5.15258L8.91899 4.98639C8.48466 4.53318 8.26749 4.30658 8.03426 4.18348C7.57042 3.93867 7.02263 3.93867 6.55879 4.18348C6.32556 4.30658 6.10839 4.53318 5.67406 4.98639L5.54523 5.12082C5.11239 5.57248 4.89597 5.79831 4.73068 6.10535C4.54727 6.44605 4.4154 6.9752 4.41651 7.36597C4.41751 7.71813 4.48298 7.95881 4.61391 8.44017C5.31755 11.027 6.64517 13.468 8.59678 15.5045C10.5484 17.541 12.8877 18.9263 15.3668 19.6605C15.8281 19.7972 16.0587 19.8655 16.3962 19.8665C16.7707 19.8677 17.2778 19.7301 17.6043 19.5387C17.8985 19.3662 18.115 19.1404 18.5478 18.6887L18.6766 18.5543C19.111 18.1011 19.3281 17.8745 19.4461 17.6311C19.6807 17.1471 19.6807 16.5755 19.4461 16.0915C19.3281 15.8481 19.111 15.6215 18.6766 15.1683L18.5174 15.0021C18.2317 14.704 18.0888 14.5549 17.9451 14.4574C17.4034 14.0899 16.705 14.0899 16.1632 14.4574C16.0196 14.5549 15.8767 14.704 15.591 15.0021C15.4976 15.0996 15.4508 15.1483 15.3962 15.1891C15.2022 15.3341 14.9208 15.3842 14.6917 15.3145C14.6272 15.2949 14.5763 15.2693 14.4744 15.2183C13.2897 14.6247 12.1793 13.8156 11.1973 12.7909Z" stroke="white" stroke-width="1.54157" stroke-linecap="round"/>
</svg>
